<?xml version="1.0" encoding="UTF-8"?> <svg xmlns="http://www.w3.org/2000/svg" width="273" height="116" viewBox="0 0 273 116" fill="none"><path d="M136.665 53.5383L126.626 23.8632L85.6148 30.3821L78.0858 0L43.0526 4.98081L47.7122 36.4092L0 43.9935V79.2706L52.6003 69.3662L59.5155 116L104.257 105.624L93.3723 61.6893L136.666 53.5383H136.665ZM124.727 38.8056L110.798 51.4647L106.155 34.4488L124.727 38.807V38.8056ZM6.75308 59.7643L28.0681 46.8981L28.9119 66.1973L6.75169 59.7643H6.75308ZM53.3942 21.3742L61.4137 4.98081L74.7092 18.4696L53.3942 21.3742ZM82.3075 105.003L64.0517 86.1192L88.85 81.761L82.3075 105.003Z" fill="#E91C36"></path><path d="M196.06 35.2771C198.662 49.6051 188.439 57.5327 173.636 57.5327C158.833 57.5327 140.352 46.2578 137.6 31.957C135.384 20.4396 141.424 10.8172 156.594 9.13057C168.413 7.81589 191.838 12.0351 196.06 35.2771Z" fill="#E91C36"></path><path d="M251.141 24.4872C256.099 38.2021 246.307 44.0916 231.504 44.0916C216.701 44.0916 197.018 32.991 195.468 18.5159C194.44 8.91668 199.152 0.837855 214.419 0.692082C226.378 0.579005 245.513 8.91532 251.141 24.4872Z" fill="#E91C36"></path><path d="M124.379 75.0446C124.281 74.7707 124.148 74.5255 123.977 74.3102C123.606 73.843 123.222 73.6481 122.823 73.7258C122.528 73.783 122.326 73.9819 122.216 74.3184C122.107 74.6563 122.118 75.0405 122.251 75.4682L126.349 88.1083C126.5 88.5538 126.516 88.9584 126.396 89.3208C126.276 89.6845 126.071 89.8984 125.78 89.9625L120.221 91.1927C119.785 91.2894 119.373 91.085 118.988 90.5796C118.812 90.348 118.674 90.0851 118.572 89.7894L114.662 76.9669C114.57 76.6876 114.441 76.4383 114.272 76.2203C113.905 75.7448 113.515 75.5473 113.104 75.6277C112.799 75.6876 112.587 75.8892 112.465 76.2325C112.344 76.5772 112.344 76.9682 112.468 77.4042L116.329 90.2826C116.476 90.7417 116.484 91.1573 116.356 91.5292C116.227 91.9038 116.012 92.1232 115.713 92.1899L109.995 93.4556C109.546 93.555 109.13 93.3479 108.748 92.833C108.573 92.5986 108.439 92.3289 108.344 92.0278L104.22 77.3674C104.088 76.9314 104.091 76.5391 104.229 76.1889C104.368 75.8402 104.591 75.6372 104.903 75.5759L129.682 70.7858C130.071 70.7109 130.451 70.9016 130.822 71.3607C130.992 71.5719 131.128 71.8117 131.228 72.08L140.411 98.6435C140.62 99.2497 140.598 99.5862 140.342 99.6475C140.206 99.6802 140.016 99.5985 139.774 99.4037L131.168 92.9801C130.897 92.7703 130.624 92.4883 130.347 92.1327C129.939 91.6109 129.665 91.1218 129.524 90.6654L124.379 75.0432V75.0446Z" fill="#E91C36"></path><path d="M147.687 67.3063C148.055 67.2355 148.425 67.4208 148.801 67.8635C148.972 68.0679 149.112 68.2995 149.22 68.5583L154.412 81.9572C154.585 82.3823 154.629 82.7664 154.545 83.1098C154.46 83.4544 154.284 83.6561 154.018 83.7147L139.587 86.908C139.177 86.9993 138.776 86.8004 138.387 86.3154C138.21 86.0933 138.065 85.8399 137.959 85.5552L135.772 79.2992C135.63 78.8701 135.606 78.4845 135.703 78.1439C135.8 77.8047 135.993 77.6044 136.281 77.5459L143.47 76.0663C143.754 76.0078 143.94 75.8129 144.03 75.4805C144.119 75.1495 144.091 74.7748 143.944 74.3593L142.843 71.3975C142.725 71.1332 142.579 70.8962 142.406 70.6863C142.028 70.2313 141.651 70.0406 141.274 70.1142C140.997 70.1686 140.817 70.358 140.733 70.685C140.648 71.012 140.68 71.3825 140.828 71.798L141.373 73.2871C141.529 73.6958 141.557 74.0664 141.457 74.3961C141.357 74.7258 141.172 74.9192 140.903 74.9737L135.752 76.02C135.347 76.1017 134.956 75.9097 134.579 75.4451C134.406 75.2326 134.269 74.9901 134.167 74.7176L133.127 71.7108C132.975 71.298 132.951 70.9275 133.055 70.5992C133.161 70.2708 133.355 70.0801 133.64 70.0242L147.689 67.3077L147.687 67.3063ZM145.611 78.8823C145.504 78.6085 145.364 78.366 145.188 78.1521C144.806 77.6889 144.417 77.4982 144.022 77.5799C143.739 77.6385 143.552 77.836 143.465 78.1739C143.376 78.5118 143.414 78.8919 143.577 79.3156L144.695 82.4C144.806 82.6793 144.95 82.9272 145.127 83.1452C145.517 83.6206 145.905 83.8168 146.29 83.7337C146.575 83.6711 146.765 83.4667 146.859 83.1193C146.954 82.7733 146.916 82.3863 146.749 81.9586L145.61 78.8837L145.611 78.8823Z" fill="#E91C36"></path><path d="M164.611 64.0339C164.96 63.9672 165.322 64.147 165.7 64.5761C165.873 64.7737 166.017 64.9971 166.132 65.2478L171.673 78.1834C171.857 78.5935 171.915 78.9627 171.849 79.2938C171.782 79.6248 171.623 79.8183 171.372 79.8741L166.57 80.9368C166.193 81.0199 165.807 80.8305 165.413 80.37C165.233 80.1589 165.083 79.9191 164.964 79.6494L160.137 67.9548C160.023 67.7001 159.881 67.4712 159.707 67.2709C159.329 66.8336 158.962 66.651 158.606 66.7205C158.341 66.7723 158.174 66.9548 158.103 67.2668C158.032 67.5788 158.075 67.9371 158.232 68.3349L163.024 80.0758C163.202 80.4927 163.253 80.8687 163.177 81.2052C163.101 81.543 162.933 81.7406 162.675 81.7978L157.733 82.8918C157.345 82.9776 156.954 82.7855 156.562 82.3169C156.382 82.103 156.235 81.8578 156.12 81.5839L150.893 68.2314C150.728 67.8335 150.689 67.4753 150.775 67.1592C150.861 66.8431 151.038 66.6592 151.307 66.6074L164.611 64.0353V64.0339Z" fill="#E91C36"></path><path d="M184.819 80.7638C184.561 80.5962 184.291 80.3523 184.008 80.0322C183.591 79.5622 183.285 79.1153 183.09 78.6875C183 78.4832 182.88 78.2979 182.731 78.1303C182.35 77.7012 181.974 77.5281 181.603 77.6112L175.083 79.054C174.717 79.1357 174.334 78.9491 173.94 78.4954C173.759 78.2883 173.607 78.0527 173.485 77.787L167.908 64.9004C167.734 64.5162 167.681 64.1702 167.749 63.865C167.817 63.5598 167.978 63.3841 168.234 63.3337L172.798 62.4508C173.137 62.3854 173.496 62.5626 173.874 62.9849C174.049 63.1783 174.195 63.3991 174.311 63.6456L179.367 74.9097C179.49 75.1685 179.642 75.4015 179.824 75.6045C180.219 76.0486 180.589 76.2339 180.934 76.1576C181.189 76.1018 181.344 75.9124 181.399 75.5909C181.455 75.2693 181.388 74.9097 181.198 74.5105L176.112 63.2901C175.933 62.9127 175.875 62.5735 175.935 62.2737C175.994 61.9754 176.148 61.801 176.398 61.7533L180.842 60.8937C181.173 60.8296 181.528 61.0054 181.908 61.4209C182.082 61.6116 182.229 61.8282 182.35 62.0707L193.537 85.904C193.791 86.4462 193.811 86.7432 193.595 86.7963C193.481 86.8236 193.308 86.7609 193.078 86.607L184.817 80.7624L184.819 80.7638Z" fill="#E91C36"></path><path d="M210.184 74.9873C209.929 74.8061 209.659 74.565 209.373 74.2626C208.955 73.8171 208.649 73.4015 208.456 73.016C208.348 72.8253 208.219 72.6509 208.068 72.4915C207.684 72.0841 207.324 71.9193 206.983 71.9942L201.003 73.3171C200.668 73.392 200.299 73.2135 199.902 72.7844C199.72 72.5882 199.564 72.3648 199.432 72.1141L193.384 59.9128C193.196 59.5476 193.124 59.222 193.167 58.9332C193.21 58.6457 193.348 58.4795 193.584 58.4332L205.188 56.1894C205.492 56.1308 205.835 56.2984 206.216 56.6935C206.392 56.8747 206.543 57.0818 206.67 57.3106L208.026 59.891C208.223 60.2506 208.308 60.5735 208.279 60.8596C208.25 61.1471 208.126 61.3119 207.911 61.3555L203.791 62.1934C203.468 62.2587 203.112 62.0885 202.725 61.6811C202.548 61.4945 202.396 61.2833 202.267 61.0476L201.593 59.737C201.469 59.5027 201.318 59.2942 201.143 59.109C200.761 58.7071 200.414 58.5381 200.104 58.5981C199.873 58.643 199.742 58.8079 199.71 59.0926C199.679 59.3773 199.753 59.7029 199.935 60.0681L204.725 69.4343C204.856 69.6796 205.014 69.8989 205.196 70.0924C205.592 70.5147 205.95 70.6904 206.265 70.6209C206.5 70.5692 206.631 70.3921 206.663 70.0896C206.694 69.7872 206.608 69.4466 206.405 69.0692L204.32 65.023C204.135 64.6511 204.056 64.3186 204.083 64.0271C204.111 63.7355 204.24 63.5653 204.471 63.5189L208.6 62.6702C208.919 62.6048 209.272 62.7751 209.663 63.1811C209.841 63.3677 209.991 63.5802 210.112 63.82L218.641 79.8905C218.913 80.4027 218.95 80.6834 218.752 80.7311C218.647 80.757 218.479 80.6847 218.25 80.5172L210.185 74.9901L210.184 74.9873Z" fill="#E91C36"></path><path d="M219.63 53.3979C219.92 53.3421 220.255 53.5055 220.638 53.8884C220.814 54.0641 220.967 54.2644 221.099 54.4865L227.589 65.9576C227.801 66.32 227.901 66.6456 227.888 66.9358C227.876 67.2259 227.766 67.3949 227.558 67.4398L216.326 69.9261C216.007 69.997 215.648 69.824 215.249 69.4084C215.066 69.2177 214.908 69.0025 214.771 68.76L211.928 63.4372C211.738 63.0707 211.654 62.7451 211.675 62.4577C211.695 62.1716 211.819 62.0054 212.043 61.959L217.657 60.8037C217.879 60.7588 217.998 60.5953 218.016 60.3133C218.033 60.0326 217.947 59.7139 217.757 59.3583L216.355 56.8229C216.214 56.5954 216.056 56.3924 215.877 56.2112C215.49 55.8188 215.149 55.6499 214.853 55.7085C214.635 55.7507 214.52 55.9115 214.507 56.188C214.493 56.466 214.583 56.782 214.774 57.1376L215.471 58.4128C215.668 58.7629 215.754 59.0776 215.729 59.3569C215.704 59.6362 215.585 59.797 215.374 59.8406L211.349 60.658C211.033 60.722 210.681 60.5531 210.295 60.1525C210.117 59.97 209.963 59.7615 209.833 59.5286L208.47 56.9591C208.274 56.6063 208.191 56.2902 208.22 56.0123C208.25 55.7344 208.376 55.5736 208.599 55.5314L219.626 53.3993L219.63 53.3979ZM219.884 63.2247C219.751 62.9917 219.596 62.7833 219.416 62.5993C219.025 62.2002 218.676 62.0326 218.367 62.098C218.145 62.1443 218.027 62.3092 218.012 62.5939C217.997 62.88 218.091 63.2029 218.296 63.5639L219.729 66.1933C219.866 66.4303 220.025 66.6428 220.207 66.8295C220.604 67.2382 220.953 67.4099 221.254 67.3445C221.477 67.2954 221.598 67.1251 221.616 66.8322C221.634 66.5407 221.54 66.2123 221.332 65.8486L219.887 63.226L219.884 63.2247Z" fill="#E91C36"></path><path d="M236.785 52.7631C236.647 52.5464 236.491 52.353 236.315 52.1813C235.931 51.808 235.603 51.6486 235.327 51.7018C235.123 51.7413 235.022 51.8925 235.022 52.1554C235.022 52.4184 235.121 52.7181 235.32 53.056L241.296 62.9754C241.511 63.3241 241.616 63.6361 241.612 63.9154C241.609 64.1947 241.508 64.3554 241.31 64.399L237.534 65.2342C237.238 65.2995 236.891 65.1333 236.491 64.7355C236.308 64.553 236.146 64.3473 236.002 64.117L230.108 54.0846C229.973 53.8652 229.818 53.6677 229.644 53.4947C229.261 53.1173 228.929 52.9552 228.647 53.0097C228.438 53.0505 228.331 53.2045 228.324 53.4701C228.319 53.7372 228.412 54.041 228.607 54.3843L234.483 64.4508C234.698 64.8077 234.802 65.1279 234.796 65.4126C234.789 65.6987 234.685 65.8636 234.483 65.9085L230.622 66.7627C230.32 66.8295 229.968 66.6619 229.569 66.2587C229.386 66.0747 229.225 65.8649 229.085 65.6306L222.573 54.1976C222.371 53.8557 222.279 53.5491 222.296 53.2794C222.313 53.011 222.428 52.8557 222.64 52.8148L239.687 49.5193C239.956 49.4675 240.282 49.6242 240.664 49.992C240.839 50.1609 240.995 50.3517 241.132 50.5642L254.025 71.4016C254.316 71.873 254.375 72.1304 254.202 72.1727C254.109 72.1945 253.953 72.1277 253.73 71.9724L245.955 66.8404C245.709 66.6728 245.443 66.4494 245.157 66.1687C244.739 65.7573 244.424 65.3731 244.215 65.0175L236.785 52.7617V52.7631Z" fill="#E91C36"></path><path d="M251.428 55.6077C251.439 55.8693 251.553 56.1676 251.769 56.5L253.293 58.925C253.45 59.1457 253.62 59.3433 253.803 59.519C254.203 59.9032 254.537 60.0653 254.803 60.0081C255 59.9645 255.093 59.8092 255.083 59.5395C255.074 59.2711 254.957 58.9686 254.735 58.6294L253.964 57.4128C253.743 57.0777 253.63 56.778 253.62 56.5123C253.612 56.248 253.705 56.0954 253.9 56.0545L257.386 55.3189C257.645 55.2644 257.971 55.421 258.363 55.7916C258.543 55.9619 258.705 56.154 258.85 56.3692L260.411 58.7793C260.635 59.1144 260.754 59.4155 260.769 59.6825C260.785 59.9495 260.7 60.1049 260.516 60.1444L250.584 62.3419C250.303 62.4045 249.962 62.2424 249.565 61.8569C249.383 61.6811 249.22 61.4809 249.074 61.2574L242.295 50.334C242.086 50.007 241.98 49.7141 241.982 49.458C241.982 49.2018 242.081 49.0547 242.278 49.0152L252.066 47.1229C252.323 47.0725 252.642 47.2264 253.023 47.5847C253.198 47.7496 253.355 47.9348 253.495 48.1419L256.526 52.8053C256.745 53.1323 256.858 53.4252 256.869 53.6827C256.88 53.9415 256.79 54.0914 256.598 54.1322L251.704 55.1513C251.507 55.1922 251.416 55.3434 251.427 55.605L251.428 55.6077ZM249.47 52.8939C249.615 53.1105 249.778 53.3039 249.957 53.4756C250.35 53.8502 250.684 54.0096 250.957 53.9538C251.152 53.9143 251.244 53.7644 251.233 53.5042C251.22 53.2453 251.112 52.9511 250.906 52.62L249.396 50.2631C249.256 50.0533 249.098 49.864 248.922 49.6977C248.538 49.334 248.217 49.1787 247.953 49.2304C247.758 49.2686 247.665 49.4144 247.672 49.6678C247.679 49.9212 247.783 50.2114 247.985 50.5383L249.47 52.8952V52.8939Z" fill="#E91C36"></path><path d="M263.915 49.9757C263.656 50.0288 263.331 49.8762 262.946 49.5193C262.77 49.3558 262.609 49.1719 262.465 48.9648L261.703 47.8218C261.561 47.6174 261.403 47.4335 261.227 47.2714C260.844 46.9185 260.528 46.7659 260.278 46.815C260.092 46.8518 260.009 46.9934 260.025 47.2387C260.043 47.4853 260.156 47.7673 260.363 48.0847L261.882 50.3735C262.026 50.5833 262.188 50.7713 262.367 50.9375C262.758 51.3012 263.085 51.4552 263.345 51.4021L268.003 50.4443C268.26 50.3912 268.581 50.5438 268.969 50.8993C269.148 51.0628 269.304 51.2481 269.442 51.4579L272.617 56.1104C272.846 56.436 272.972 56.7289 272.995 56.9864C273.02 57.2453 272.944 57.3951 272.768 57.4333L263.299 59.5286C263.031 59.5885 262.698 59.4305 262.3 59.0558C262.119 58.8842 261.954 58.6907 261.806 58.4727L260.243 56.0695C260.021 55.7398 259.904 55.4442 259.89 55.184C259.876 54.9238 259.964 54.7739 260.154 54.7344L263.559 54.0164C263.812 53.9633 264.134 54.1186 264.526 54.4824C264.706 54.6499 264.868 54.8393 265.015 55.0518L265.8 56.2357C265.949 56.4496 266.113 56.6404 266.294 56.8093C266.688 57.1771 267.013 57.3352 267.266 57.2793C267.455 57.2384 267.538 57.0872 267.518 56.827C267.499 56.5668 267.377 56.2739 267.151 55.9455L265.581 53.5914C265.435 53.3816 265.271 53.1936 265.092 53.0274C264.703 52.665 264.377 52.5124 264.116 52.5669L259.367 53.556C259.111 53.6091 258.787 53.4538 258.397 53.0873C258.22 52.9197 258.058 52.7304 257.915 52.5192L254.875 47.8722C254.661 47.5547 254.55 47.2714 254.54 47.022C254.53 46.7727 254.62 46.6311 254.809 46.5943L264.153 44.7878C264.398 44.7401 264.711 44.89 265.091 45.2387C265.266 45.3981 265.423 45.5793 265.566 45.7796L267.097 48.0343C267.318 48.349 267.437 48.6283 267.456 48.8762C267.475 49.1242 267.398 49.2659 267.225 49.3013L263.91 49.9743L263.915 49.9757Z" fill="#E91C36"></path></svg> 